<svg xmlns="http://www.w3.org/2000/svg" width="28" height="28" viewBox="0 0 20 20" fill="none">
  <path d="M8.33594 13.35C9.72483 13.35 10.9054 12.8632 11.8776 11.8894C12.8498 10.9155 13.3359 9.73301 13.3359 8.3419C13.3359 6.95079 12.8498 5.76836 11.8776 4.79461C10.9054 3.82086 9.72483 3.33398 8.33594 3.33398C6.94705 3.33398 5.76649 3.82086 4.79427 4.79461C3.82205 5.76836 3.33594 6.95079 3.33594 8.3419C3.33594 9.73301 3.82205 10.9155 4.79427 11.8894C5.76649 12.8632 6.94705 13.35 8.33594 13.35ZM8.33573 10.6657C8.15851 10.6657 8.0101 10.6058 7.89052 10.4861C7.7708 10.3662 7.71094 10.2177 7.71094 10.0407V5.89003C7.71094 5.71294 7.77087 5.56454 7.89073 5.44482C8.01059 5.32496 8.15906 5.26503 8.33615 5.26503C8.51337 5.26503 8.66177 5.32496 8.78135 5.44482C8.90108 5.56454 8.96094 5.71294 8.96094 5.89003V10.0407C8.96094 10.2177 8.90101 10.3662 8.78115 10.4861C8.66128 10.6058 8.51281 10.6657 8.33573 10.6657ZM5.48302 10.6657C5.30594 10.6657 5.15753 10.6058 5.03781 10.4861C4.91823 10.3662 4.85844 10.2177 4.85844 10.0407V7.51669C4.85844 7.33961 4.91837 7.19114 5.03823 7.07128C5.15809 6.95155 5.30656 6.89169 5.48365 6.89169C5.66087 6.89169 5.80927 6.95155 5.92885 7.07128C6.04858 7.19114 6.10844 7.33961 6.10844 7.51669V10.0407C6.10844 10.2177 6.04851 10.3662 5.92865 10.4861C5.80879 10.6058 5.66024 10.6657 5.48302 10.6657ZM11.1882 10.6657C11.011 10.6657 10.8626 10.6058 10.743 10.4861C10.6233 10.3662 10.5634 10.2177 10.5634 10.0407V8.33398C10.5634 8.1569 10.6234 8.0085 10.7432 7.88878C10.8631 7.76892 11.0116 7.70898 11.1889 7.70898C11.3659 7.70898 11.5143 7.76892 11.6341 7.88878C11.7536 8.0085 11.8134 8.1569 11.8134 8.33398V10.0407C11.8134 10.2177 11.7535 10.3662 11.6336 10.4861C11.5138 10.6058 11.3653 10.6657 11.1882 10.6657ZM8.33594 14.584C6.59122 14.584 5.11337 13.9786 3.9024 12.7679C2.69142 11.5572 2.08594 10.0797 2.08594 8.33523C2.08594 6.59079 2.69128 5.1128 3.90198 3.90128C5.11267 2.68975 6.59024 2.08398 8.33469 2.08398C10.0791 2.08398 11.5571 2.68947 12.7686 3.90044C13.9802 5.11142 14.5859 6.58926 14.5859 8.33398C14.5859 9.08871 14.4617 9.80301 14.2132 10.4769C13.9649 11.1508 13.6185 11.7565 13.1741 12.294L17.4882 16.6079C17.6035 16.7216 17.6611 16.8661 17.6611 17.0417C17.6611 17.2172 17.6035 17.3641 17.4882 17.4821C17.3728 17.6002 17.2264 17.6579 17.0491 17.6552C16.8717 17.6526 16.7253 17.5936 16.6099 17.4782L12.3039 13.1721C11.7611 13.6166 11.1527 13.9629 10.4789 14.2113C9.80497 14.4597 9.09066 14.584 8.33594 14.584Z" fill="#808080"></path>
</svg>