<svg width="30" height="17" viewBox="0 0 39 26" fill="none" xmlns="http://www.w3.org/2000/svg">
  <path d="M15.3889 13C15.3889 14.0609 15.822 15.0783 16.593 15.8284C17.364 16.5786 18.4097 17 19.5 17C20.5903 17 21.636 16.5786 22.407 15.8284C23.178 15.0783 23.6111 14.0609 23.6111 13C23.6111 11.9391 23.178 10.9217 22.407 10.1716C21.636 9.42143 20.5903 9 19.5 9C18.4097 9 17.364 9.42143 16.593 10.1716C15.822 10.9217 15.3889 11.9391 15.3889 13Z" stroke="#808080" strokeWidth="2" strokeLinecap="round" strokeLinejoin="round"></path>
  <path d="M38 13C33.0667 21 26.9 25 19.5 25C12.1 25 5.93333 21 1 13C5.93333 5 12.1 1 19.5 1C26.9 1 33.0667 5 38 13Z" stroke="#808080" strokeWidth="2" strokeLinecap="round" strokeLinejoin="round"></path>
</svg>